<?xml version="1.0" encoding="UTF-8" standalone="no"?>
<svg
   width="256"
   height="256"
   viewBox="-25 0 90.53146 72.866785"
   xml:space="preserve"
   version="1.1"
   id="svg4"
   sodipodi:docname="toshi-256.svg"
   inkscape:version="1.3.2 (091e20e, 2023-11-25)"
   xmlns:inkscape="http://www.inkscape.org/namespaces/inkscape"
   xmlns:sodipodi="http://sodipodi.sourceforge.net/DTD/sodipodi-0.dtd"
   xmlns="http://www.w3.org/2000/svg"
   xmlns:svg="http://www.w3.org/2000/svg"><defs
   id="defs4" /><sodipodi:namedview
   id="namedview4"
   pagecolor="#ffffff"
   bordercolor="#000000"
   borderopacity="0.25"
   inkscape:showpageshadow="2"
   inkscape:pageopacity="0.0"
   inkscape:pagecheckerboard="0"
   inkscape:deskcolor="#d1d1d1"
   inkscape:zoom="0.40711556"
   inkscape:cx="282.47508"
   inkscape:cy="224.75191"
   inkscape:window-width="1312"
   inkscape:window-height="794"
   inkscape:window-x="3152"
   inkscape:window-y="311"
   inkscape:window-maximized="0"
   inkscape:current-layer="svg4" />
  <g
   transform="matrix(0.55226899,0.13646819,-0.13646819,0.55226899,-11.937625,-16.908612)"
   id="g4">
    <circle
   style="fill:#ff9500;fill-opacity:1;stroke:#ffffff;stroke-width:6px"
   cx="77.448997"
   cy="77.448997"
   r="76.556"
   id="circle1" />
    <path
   d="m 217.021,167.042 c 18.631,-9.483 30.288,-26.184 27.565,-54.007 C 240.919,75.012 208.06,62.262 166.58,58.631 L 166.572,5.89 h -32.139 l -0.009,51.354 c -8.456,0 -17.076,0.166 -25.657,0.338 L 108.76,5.897 76.65,5.894 76.644,58.622 c -6.959,0.142 -13.793,0.277 -20.466,0.277 v -0.156 l -44.33,-0.018 0.006,34.282 c 0,0 23.734,-0.446 23.343,-0.013 13.013,0.009 17.262,7.559 18.484,14.076 l 0.01,60.083 v 84.397 c -0.573,4.09 -2.984,10.625 -12.083,10.637 0.414,0.364 -23.379,-0.004 -23.379,-0.004 l -6.375,38.335 h 41.817 c 7.792,0.009 15.448,0.13 22.959,0.19 l 0.028,53.338 32.102,0.009 -0.009,-52.779 c 8.832,0.18 17.357,0.258 25.684,0.247 l -0.009,52.532 h 32.138 l 0.018,-53.249 c 54.022,-3.1 91.842,-16.697 96.544,-67.385 3.79,-40.809 -15.434,-59.025 -46.105,-66.379 z M 109.535,95.321 c 18.126,0 75.132,-5.767 75.14,32.064 -0.008,36.269 -56.996,32.032 -75.14,32.032 V 95.321 Z m -0.014,167.126 0.014,-70.672 c 21.778,-0.006 90.085,-6.261 90.094,35.32 0.009,39.876 -68.316,35.336 -90.108,35.352 z"
   style="fill:#ffffff"
   transform="matrix(0.26458,0,0,0.27708,67.204,25.075)"
   id="path1" />
    <g
   style="opacity:1;fill:#ffffff;fill-rule:nonzero;stroke:none;stroke-width:0;stroke-linecap:butt;stroke-linejoin:miter;stroke-miterlimit:10;stroke-dasharray:none"
   id="g3">
      <path
   d="M 87.994,0 H 69.342 C 67.555,0 66.66,2.16 67.924,3.424 l 5.795,5.795 -33.82,33.82 -11.843,-11.843 -3.174,-3.174 a 2.75,2.75 0 0 0 -3.889,0 L 0.805,48.209 a 2.75,2.75 0 0 0 0,3.889 l 3.174,3.174 a 2.75,2.75 0 0 0 3.889,0 L 22.937,40.203 37.931,55.197 a 2.75,2.75 0 0 0 3.889,0 l 1.614,-1.614 c 0.083,-0.066 0.17,-0.125 0.247,-0.202 l 37.1,-37.1 5.795,5.795 C 87.84,23.34 90,22.445 90,20.658 V 2.006 A 2.006,2.006 0 0 0 87.994,0 Z"
   style="opacity:1;fill:#ffffff;fill-rule:nonzero;stroke:none;stroke-width:1;stroke-linecap:butt;stroke-linejoin:miter;stroke-miterlimit:10;stroke-dasharray:none"
   transform="matrix(0.74348,0,0,0.74348,12.913,41.356)"
   id="path2" />
      <path
   d="m 65.626,37.8 v 49.45 a 2.75,2.75 0 0 0 2.75,2.75 h 8.782 a 2.75,2.75 0 0 0 2.75,-2.75 V 23.518 Z M 47.115,56.312 V 87.25 a 2.75,2.75 0 0 0 2.75,2.75 h 8.782 a 2.75,2.75 0 0 0 2.75,-2.75 V 42.03 Z m -7.239,4.191 A 7.202,7.202 0 0 1 34.749,58.379 L 28.603,52.234 V 87.25 a 2.75,2.75 0 0 0 2.75,2.75 h 8.782 a 2.75,2.75 0 0 0 2.75,-2.75 V 59.844 a 7.212,7.212 0 0 1 -3.009,0.659 z M 22.937,46.567 11.051,58.453 a 7.265,7.265 0 0 1 -0.959,0.8 V 87.25 a 2.75,2.75 0 0 0 2.75,2.75 h 8.782 a 2.75,2.75 0 0 0 2.75,-2.75 V 48.004 Z"
   style="opacity:1;fill:#ffffff;fill-rule:nonzero;stroke:none;stroke-width:1;stroke-linecap:butt;stroke-linejoin:miter;stroke-miterlimit:10;stroke-dasharray:none"
   transform="matrix(0.74348,0,0,0.74348,12.913,41.356)"
   id="path3" />
    </g>
  </g>
</svg>
